<?xml version="1.0" encoding="UTF-8" standalone="no"?>
<!DOCTYPE svg PUBLIC "-//W3C//DTD SVG 1.1//EN"
 "http://www.w3.org/Graphics/SVG/1.1/DTD/svg11.dtd">
<!-- Generated by graphviz version 10.0.1 (20240210.2158)
 -->
<!-- Pages: 1 -->
<svg width="796pt" height="176pt"
 viewBox="0.00 0.00 796.04 176.32" xmlns="http://www.w3.org/2000/svg" xmlns:xlink="http://www.w3.org/1999/xlink">
<g id="graph0" class="graph" transform="scale(1 1) rotate(0) translate(4 172.32)">
<polygon fill="white" stroke="none" points="-4,4 -4,-172.32 792.04,-172.32 792.04,4 -4,4"/>
<!-- &#45;1 -->
<g id="node1" class="node">
<title>&#45;1</title>
<polygon fill="lightgray" stroke="black" points="139.79,-168.32 116.29,-168.32 116.29,-149.07 139.79,-149.07 139.79,-168.32"/>
<text text-anchor="middle" x="128.04" y="-155.77" font-family="Times New Roman,serif" font-size="9.00">&#45;1</text>
</g>
<!-- 1566 -->
<g id="node21" class="node">
<title>1566</title>
<ellipse fill="white" stroke="black" cx="128.04" cy="-89.03" rx="24.04" ry="24.04"/>
<text text-anchor="middle" x="128.04" y="-86.11" font-family="Times New Roman,serif" font-size="9.00">1566</text>
</g>
<!-- &#45;1&#45;&gt;1566 -->
<g id="edge24" class="edge">
<title>&#45;1&#45;&gt;1566</title>
<path fill="none" stroke="green" stroke-width="0.37" stroke-dasharray="1,5" d="M128.04,-148.85C128.04,-142.35 128.04,-133.05 128.04,-123.77"/>
<polygon fill="green" stroke="green" stroke-width="0.37" points="131.54,-124.01 128.04,-114.01 124.54,-124.01 131.54,-124.01"/>
</g>
<!-- &#45;2 -->
<g id="node2" class="node">
<title>&#45;2</title>
<polygon fill="lightgray" stroke="black" points="357.79,-98.66 334.29,-98.66 334.29,-79.41 357.79,-79.41 357.79,-98.66"/>
<text text-anchor="middle" x="346.04" y="-86.11" font-family="Times New Roman,serif" font-size="9.00">&#45;2</text>
</g>
<!-- 0 -->
<g id="node16" class="node">
<title>0</title>
<ellipse fill="lightblue" stroke="black" cx="346.04" cy="-14.5" rx="14.5" ry="14.5"/>
<text text-anchor="middle" x="346.04" y="-11.57" font-family="Times New Roman,serif" font-size="9.00">0</text>
</g>
<!-- &#45;2&#45;&gt;0 -->
<g id="edge1" class="edge">
<title>&#45;2&#45;&gt;0</title>
<path fill="none" stroke="red" stroke-width="1.06" stroke-dasharray="1,5" d="M346.04,-79.14C346.04,-69.64 346.04,-54.15 346.04,-40.83"/>
<polygon fill="red" stroke="red" stroke-width="1.06" points="349.54,-41.05 346.04,-31.05 342.54,-41.05 349.54,-41.05"/>
</g>
<!-- 1 -->
<g id="node17" class="node">
<title>1</title>
<ellipse fill="lightblue" stroke="black" cx="222.04" cy="-14.5" rx="14.5" ry="14.5"/>
<text text-anchor="middle" x="222.04" y="-11.57" font-family="Times New Roman,serif" font-size="9.00">1</text>
</g>
<!-- &#45;2&#45;&gt;1 -->
<g id="edge22" class="edge">
<title>&#45;2&#45;&gt;1</title>
<path fill="none" stroke="red" stroke-width="0.2" d="M334.15,-81.08C313.2,-68.82 269.46,-43.24 243.24,-27.9"/>
<polygon fill="red" stroke="red" stroke-width="0.2" points="245.1,-24.93 234.7,-22.9 241.57,-30.97 245.1,-24.93"/>
</g>
<!-- 2 -->
<g id="node18" class="node">
<title>2</title>
<ellipse fill="lightblue" stroke="black" cx="560.04" cy="-14.5" rx="14.5" ry="14.5"/>
<text text-anchor="middle" x="560.04" y="-11.57" font-family="Times New Roman,serif" font-size="9.00">2</text>
</g>
<!-- &#45;2&#45;&gt;2 -->
<g id="edge17" class="edge">
<title>&#45;2&#45;&gt;2</title>
<path fill="none" stroke="red" stroke-width="0.29" stroke-dasharray="1,5" d="M352.09,-79.19C355.85,-74.32 361.1,-68.56 367.04,-64.99 421.27,-32.38 496.56,-21.1 535.11,-17.32"/>
<polygon fill="red" stroke="red" stroke-width="0.29" points="535.3,-20.82 544.95,-16.45 534.68,-13.84 535.3,-20.82"/>
</g>
<!-- &#45;3 -->
<g id="node3" class="node">
<title>&#45;3</title>
<polygon fill="lightgray" stroke="black" points="277.79,-98.66 254.29,-98.66 254.29,-79.41 277.79,-79.41 277.79,-98.66"/>
<text text-anchor="middle" x="266.04" y="-86.11" font-family="Times New Roman,serif" font-size="9.00">&#45;3</text>
</g>
<!-- &#45;3&#45;&gt;0 -->
<g id="edge11" class="edge">
<title>&#45;3&#45;&gt;0</title>
<path fill="none" stroke="green" stroke-width="0.38" d="M275.85,-79.14C288.78,-67.41 311.78,-46.56 327.92,-31.93"/>
<polygon fill="green" stroke="green" stroke-width="0.38" points="330.17,-34.61 335.22,-25.3 325.46,-29.43 330.17,-34.61"/>
</g>
<!-- &#45;3&#45;&gt;1 -->
<g id="edge18" class="edge">
<title>&#45;3&#45;&gt;1</title>
<path fill="none" stroke="green" stroke-width="0.56" d="M260.65,-79.14C254.23,-68.56 243.32,-50.57 234.73,-36.41"/>
<polygon fill="green" stroke="green" stroke-width="0.56" points="237.85,-34.81 229.67,-28.08 231.87,-38.44 237.85,-34.81"/>
</g>
<!-- &#45;4 -->
<g id="node4" class="node">
<title>&#45;4</title>
<polygon fill="lightgray" stroke="black" points="399.79,-98.66 376.29,-98.66 376.29,-79.41 399.79,-79.41 399.79,-98.66"/>
<text text-anchor="middle" x="388.04" y="-86.11" font-family="Times New Roman,serif" font-size="9.00">&#45;4</text>
</g>
<!-- &#45;4&#45;&gt;1 -->
<g id="edge2" class="edge">
<title>&#45;4&#45;&gt;1</title>
<path fill="none" stroke="green" stroke-width="1.03" stroke-dasharray="1,5" d="M381.89,-79.36C378.09,-74.55 372.84,-68.79 367.04,-64.99 329.31,-40.25 277.92,-26.57 247.53,-20.15"/>
<polygon fill="green" stroke="green" stroke-width="1.03" points="248.29,-16.73 237.8,-18.2 246.92,-23.59 248.29,-16.73"/>
</g>
<!-- &#45;4&#45;&gt;2 -->
<g id="edge7" class="edge">
<title>&#45;4&#45;&gt;2</title>
<path fill="none" stroke="red" stroke-width="0.48" d="M394.18,-79.33C397.97,-74.51 403.22,-68.75 409.04,-64.99 449.06,-39.1 503.85,-25.61 535.23,-19.58"/>
<polygon fill="red" stroke="red" stroke-width="0.48" points="535.74,-23.04 544.96,-17.81 534.49,-16.16 535.74,-23.04"/>
</g>
<!-- &#45;5 -->
<g id="node5" class="node">
<title>&#45;5</title>
<polygon fill="lightgray" stroke="black" points="741.79,-168.32 718.29,-168.32 718.29,-149.07 741.79,-149.07 741.79,-168.32"/>
<text text-anchor="middle" x="730.04" y="-155.77" font-family="Times New Roman,serif" font-size="9.00">&#45;5</text>
</g>
<!-- &#45;6 -->
<g id="node6" class="node">
<title>&#45;6</title>
<polygon fill="lightgray" stroke="black" points="191.79,-168.32 168.29,-168.32 168.29,-149.07 191.79,-149.07 191.79,-168.32"/>
<text text-anchor="middle" x="180.04" y="-155.77" font-family="Times New Roman,serif" font-size="9.00">&#45;6</text>
</g>
<!-- &#45;6&#45;&gt;0 -->
<g id="edge9" class="edge">
<title>&#45;6&#45;&gt;0</title>
<path fill="none" stroke="red" stroke-width="0.42" d="M192.27,-155.23C213.63,-150.39 258.22,-137.9 287.04,-113.07 310.76,-92.65 327.69,-60.22 337.16,-38.42"/>
<polygon fill="red" stroke="red" stroke-width="0.42" points="340.37,-39.83 340.97,-29.25 333.9,-37.15 340.37,-39.83"/>
</g>
<!-- &#45;6&#45;&gt;1 -->
<g id="edge3" class="edge">
<title>&#45;6&#45;&gt;1</title>
<path fill="none" stroke="red" stroke-width="0.26" stroke-dasharray="1,5" d="M181.16,-148.83C183.41,-132.12 189.16,-94.95 199.04,-64.99 202.16,-55.55 206.58,-45.53 210.72,-37"/>
<polygon fill="red" stroke="red" stroke-width="0.26" points="213.81,-38.64 215.17,-28.13 207.56,-35.5 213.81,-38.64"/>
</g>
<!-- &#45;6&#45;&gt;1566 -->
<g id="edge20" class="edge">
<title>&#45;6&#45;&gt;1566</title>
<path fill="none" stroke="red" stroke-width="0.49" stroke-dasharray="1,5" d="M173.24,-148.85C167.01,-140.75 157.46,-128.31 148.74,-116.96"/>
<polygon fill="red" stroke="red" stroke-width="0.49" points="151.62,-114.97 142.75,-109.18 146.07,-119.24 151.62,-114.97"/>
</g>
<!-- &#45;7 -->
<g id="node7" class="node">
<title>&#45;7</title>
<polygon fill="lightgray" stroke="black" points="571.79,-98.66 548.29,-98.66 548.29,-79.41 571.79,-79.41 571.79,-98.66"/>
<text text-anchor="middle" x="560.04" y="-86.11" font-family="Times New Roman,serif" font-size="9.00">&#45;7</text>
</g>
<!-- &#45;7&#45;&gt;0 -->
<g id="edge4" class="edge">
<title>&#45;7&#45;&gt;0</title>
<path fill="none" stroke="red" stroke-width="0.38" stroke-dasharray="1,5" d="M553.99,-79.19C550.23,-74.32 544.98,-68.56 539.04,-64.99 484.81,-32.38 409.53,-21.1 370.98,-17.32"/>
<polygon fill="red" stroke="red" stroke-width="0.38" points="371.53,-13.86 361.26,-16.46 370.91,-20.83 371.53,-13.86"/>
</g>
<!-- &#45;7&#45;&gt;2 -->
<g id="edge19" class="edge">
<title>&#45;7&#45;&gt;2</title>
<path fill="none" stroke="green" stroke-width="0.3" d="M560.04,-79.14C560.04,-69.35 560.04,-53.19 560.04,-39.61"/>
<polygon fill="green" stroke="green" stroke-width="0.3" points="563.54,-39.89 560.04,-29.89 556.54,-39.89 563.54,-39.89"/>
</g>
<!-- &#45;8 -->
<g id="node8" class="node">
<title>&#45;8</title>
<polygon fill="lightgray" stroke="black" points="699.79,-168.32 676.29,-168.32 676.29,-149.07 699.79,-149.07 699.79,-168.32"/>
<text text-anchor="middle" x="688.04" y="-155.77" font-family="Times New Roman,serif" font-size="9.00">&#45;8</text>
</g>
<!-- &#45;8&#45;&gt;0 -->
<g id="edge23" class="edge">
<title>&#45;8&#45;&gt;0</title>
<path fill="none" stroke="green" stroke-width="0.24" d="M676.02,-157.64C643.8,-156.95 553.82,-151.47 493.04,-113.07 470.01,-98.53 476.49,-81.78 455.04,-64.99 428.93,-44.55 393.02,-30.36 369.67,-22.57"/>
<polygon fill="green" stroke="green" stroke-width="0.24" points="370.85,-19.28 360.26,-19.56 368.72,-25.94 370.85,-19.28"/>
</g>
<!-- &#45;8&#45;&gt;2 -->
<g id="edge12" class="edge">
<title>&#45;8&#45;&gt;2</title>
<path fill="none" stroke="green" stroke-width="0.32" stroke-dasharray="1,5" d="M688.72,-148.68C689.59,-130.72 689.02,-90.04 669.04,-64.99 648.04,-38.67 609.96,-25.84 584.83,-19.97"/>
<polygon fill="green" stroke="green" stroke-width="0.32" points="585.61,-16.55 575.1,-17.9 584.16,-23.4 585.61,-16.55"/>
</g>
<!-- 1668 -->
<g id="node20" class="node">
<title>1668</title>
<ellipse fill="white" stroke="black" cx="740.04" cy="-89.03" rx="24.04" ry="24.04"/>
<text text-anchor="middle" x="740.04" y="-86.11" font-family="Times New Roman,serif" font-size="9.00">1668</text>
</g>
<!-- &#45;8&#45;&gt;1668 -->
<g id="edge25" class="edge">
<title>&#45;8&#45;&gt;1668</title>
<path fill="none" stroke="green" stroke-width="0.19" d="M694.84,-148.85C701.13,-140.67 710.81,-128.07 719.6,-116.63"/>
<polygon fill="green" stroke="green" stroke-width="0.19" points="722.29,-118.88 725.61,-108.82 716.74,-114.61 722.29,-118.88"/>
</g>
<!-- &#45;9 -->
<g id="node9" class="node">
<title>&#45;9</title>
<polygon fill="lightgray" stroke="black" points="613.79,-98.66 590.29,-98.66 590.29,-79.41 613.79,-79.41 613.79,-98.66"/>
<text text-anchor="middle" x="602.04" y="-86.11" font-family="Times New Roman,serif" font-size="9.00">&#45;9</text>
</g>
<!-- &#45;9&#45;&gt;2 -->
<g id="edge5" class="edge">
<title>&#45;9&#45;&gt;2</title>
<path fill="none" stroke="red" stroke-width="0.72" stroke-dasharray="1,5" d="M596.89,-79.14C590.86,-68.73 580.67,-51.12 572.53,-37.06"/>
<polygon fill="red" stroke="red" stroke-width="0.72" points="575.64,-35.45 567.6,-28.55 569.58,-38.96 575.64,-35.45"/>
</g>
<!-- &#45;10 -->
<g id="node10" class="node">
<title>&#45;10</title>
<polygon fill="lightgray" stroke="black" points="788.04,-168.32 760.04,-168.32 760.04,-149.07 788.04,-149.07 788.04,-168.32"/>
<text text-anchor="middle" x="774.04" y="-155.77" font-family="Times New Roman,serif" font-size="9.00">&#45;10</text>
</g>
<!-- &#45;11 -->
<g id="node11" class="node">
<title>&#45;11</title>
<polygon fill="lightgray" stroke="black" points="530.04,-98.66 502.04,-98.66 502.04,-79.41 530.04,-79.41 530.04,-98.66"/>
<text text-anchor="middle" x="516.04" y="-86.11" font-family="Times New Roman,serif" font-size="9.00">&#45;11</text>
</g>
<!-- &#45;11&#45;&gt;0 -->
<g id="edge13" class="edge">
<title>&#45;11&#45;&gt;0</title>
<path fill="none" stroke="red" stroke-width="0.38" d="M506.81,-79.02C501.63,-74.34 494.85,-68.82 488.04,-64.99 449.29,-43.22 399.28,-28.51 370.12,-21.11"/>
<polygon fill="red" stroke="red" stroke-width="0.38" points="371.14,-17.75 360.6,-18.76 369.47,-24.55 371.14,-17.75"/>
</g>
<!-- &#45;11&#45;&gt;2 -->
<g id="edge8" class="edge">
<title>&#45;11&#45;&gt;2</title>
<path fill="none" stroke="green" stroke-width="0.44" d="M521.44,-79.14C527.85,-68.56 538.77,-50.57 547.36,-36.41"/>
<polygon fill="green" stroke="green" stroke-width="0.44" points="550.31,-38.29 552.5,-27.92 544.32,-34.66 550.31,-38.29"/>
</g>
<!-- &#45;12 -->
<g id="node12" class="node">
<title>&#45;12</title>
<polygon fill="lightgray" stroke="black" points="446.04,-98.66 418.04,-98.66 418.04,-79.41 446.04,-79.41 446.04,-98.66"/>
<text text-anchor="middle" x="432.04" y="-86.11" font-family="Times New Roman,serif" font-size="9.00">&#45;12</text>
</g>
<!-- &#45;12&#45;&gt;1 -->
<g id="edge6" class="edge">
<title>&#45;12&#45;&gt;1</title>
<path fill="none" stroke="green" stroke-width="0.29" d="M425.24,-79.22C421.06,-74.36 415.31,-68.6 409.04,-64.99 356.07,-34.48 283.88,-22.34 246.59,-17.86"/>
<polygon fill="green" stroke="green" stroke-width="0.29" points="247.38,-14.43 237.06,-16.8 246.61,-21.39 247.38,-14.43"/>
</g>
<!-- &#45;12&#45;&gt;2 -->
<g id="edge16" class="edge">
<title>&#45;12&#45;&gt;2</title>
<path fill="none" stroke="red" stroke-width="0.3" stroke-dasharray="1,5" d="M446.23,-79.99C468.72,-67.25 512.7,-42.33 538.91,-27.47"/>
<polygon fill="red" stroke="red" stroke-width="0.3" points="540.32,-30.7 547.29,-22.72 536.87,-24.61 540.32,-30.7"/>
</g>
<!-- &#45;13 -->
<g id="node13" class="node">
<title>&#45;13</title>
<polygon fill="lightgray" stroke="black" points="64.04,-168.32 36.04,-168.32 36.04,-149.07 64.04,-149.07 64.04,-168.32"/>
<text text-anchor="middle" x="50.04" y="-155.77" font-family="Times New Roman,serif" font-size="9.00">&#45;13</text>
</g>
<!-- &#45;13&#45;&gt;1 -->
<g id="edge14" class="edge">
<title>&#45;13&#45;&gt;1</title>
<path fill="none" stroke="red" stroke-width="0.65" stroke-dasharray="1,5" d="M52.05,-148.73C56.58,-130.48 69.27,-88.77 95.04,-64.99 124.08,-38.19 169.28,-25.3 197.19,-19.57"/>
<polygon fill="red" stroke="red" stroke-width="0.65" points="197.51,-23.07 206.69,-17.77 196.21,-16.19 197.51,-23.07"/>
</g>
<!-- 1697 -->
<g id="node19" class="node">
<title>1697</title>
<ellipse fill="white" stroke="black" cx="24.04" cy="-89.03" rx="24.04" ry="24.04"/>
<text text-anchor="middle" x="24.04" y="-86.11" font-family="Times New Roman,serif" font-size="9.00">1697</text>
</g>
<!-- &#45;13&#45;&gt;1697 -->
<g id="edge27" class="edge">
<title>&#45;13&#45;&gt;1697</title>
<path fill="none" stroke="green" stroke-width="0.11" d="M46.64,-148.85C43.93,-141.79 39.96,-131.46 36.1,-121.41"/>
<polygon fill="green" stroke="green" stroke-width="0.11" points="39.39,-120.22 32.53,-112.14 32.85,-122.73 39.39,-120.22"/>
</g>
<!-- &#45;14 -->
<g id="node14" class="node">
<title>&#45;14</title>
<polygon fill="lightgray" stroke="black" points="236.04,-98.66 208.04,-98.66 208.04,-79.41 236.04,-79.41 236.04,-98.66"/>
<text text-anchor="middle" x="222.04" y="-86.11" font-family="Times New Roman,serif" font-size="9.00">&#45;14</text>
</g>
<!-- &#45;14&#45;&gt;0 -->
<g id="edge29" class="edge">
<title>&#45;14&#45;&gt;0</title>
<path fill="none" stroke="green" stroke-width="0.11" d="M229.53,-79.22C233.77,-74.6 239.34,-69.07 245.04,-64.99 269.86,-47.24 302.01,-32.72 323.29,-24.1"/>
<polygon fill="green" stroke="green" stroke-width="0.11" points="324.34,-27.45 332.36,-20.52 321.77,-20.94 324.34,-27.45"/>
</g>
<!-- &#45;14&#45;&gt;1 -->
<g id="edge10" class="edge">
<title>&#45;14&#45;&gt;1</title>
<path fill="none" stroke="red" stroke-width="0.42" stroke-dasharray="1,5" d="M222.04,-79.14C222.04,-69.44 222.04,-53.51 222.04,-40.01"/>
<polygon fill="red" stroke="red" stroke-width="0.42" points="225.54,-40.07 222.04,-30.07 218.54,-40.07 225.54,-40.07"/>
</g>
<!-- &#45;15 -->
<g id="node15" class="node">
<title>&#45;15</title>
<polygon fill="lightgray" stroke="black" points="660.04,-98.66 632.04,-98.66 632.04,-79.41 660.04,-79.41 660.04,-98.66"/>
<text text-anchor="middle" x="646.04" y="-86.11" font-family="Times New Roman,serif" font-size="9.00">&#45;15</text>
</g>
<!-- &#45;15&#45;&gt;2 -->
<g id="edge15" class="edge">
<title>&#45;15&#45;&gt;2</title>
<path fill="none" stroke="green" stroke-width="0.64" stroke-dasharray="1,5" d="M637.76,-79.25C633.48,-74.84 628.11,-69.49 623.04,-64.99 609.15,-52.65 592.6,-39.72 579.95,-30.16"/>
<polygon fill="green" stroke="green" stroke-width="0.64" points="582.4,-27.63 572.3,-24.44 578.21,-33.23 582.4,-27.63"/>
</g>
<!-- 1697&#45;&gt;1 -->
<g id="edge28" class="edge">
<title>1697&#45;&gt;1</title>
<path fill="none" stroke="green" stroke-width="0.12" d="M43.66,-74.88C49.42,-71.37 55.85,-67.78 62.04,-64.99 108.5,-44.1 166.31,-28.62 198.17,-20.93"/>
<polygon fill="green" stroke="green" stroke-width="0.12" points="198.82,-24.37 207.75,-18.67 197.21,-17.56 198.82,-24.37"/>
</g>
<!-- 1668&#45;&gt;2 -->
<g id="edge26" class="edge">
<title>1668&#45;&gt;2</title>
<path fill="none" stroke="red" stroke-width="0.13" d="M720.36,-75.03C714.59,-71.51 708.18,-67.88 702.04,-64.99 661.86,-46.07 612.38,-30.44 583.7,-22.08"/>
<polygon fill="red" stroke="red" stroke-width="0.13" points="584.9,-18.78 574.32,-19.39 582.97,-25.51 584.9,-18.78"/>
</g>
<!-- 1566&#45;&gt;1 -->
<g id="edge21" class="edge">
<title>1566&#45;&gt;1</title>
<path fill="none" stroke="red" stroke-width="0.24" d="M146.61,-73.7C162.92,-61.11 186.55,-42.88 203,-30.19"/>
<polygon fill="red" stroke="red" stroke-width="0.24" points="204.81,-33.22 210.58,-24.34 200.53,-27.68 204.81,-33.22"/>
</g>
</g>
</svg>
